<?xml version="1.0" encoding="utf-8"?>
<!-- Generator: Adobe Illustrator 24.1.0, SVG Export Plug-In . SVG Version: 6.00 Build 0)  -->
<svg version="1.1" id="图层_1" xmlns="http://www.w3.org/2000/svg" x="0px"
	 y="0px"
	 viewBox="0 0 100.8 100.8" style="enable-background:new 0 0 100.8 100.8;" xml:space="preserve">
<style type="text/css">
	.st0{fill:#85EA2D;}
	.st1{fill:#173647;}
</style>
    <g>
	<g>
		<g>
			<g>
				<g>
					<path class="st0"
                          d="M50.8,97.9c-26.3,0-47.6-21.4-47.6-47.6S24.5,2.6,50.8,2.6S98.4,24,98.4,50.2S77,97.9,50.8,97.9z"/>
				</g>
                <g>
					<g>
						<path class="st1" d="M50.8,5C75.8,5,96,25.2,96,50.2c0,25-20.3,45.3-45.3,45.3c-25,0-45.3-20.3-45.3-45.3
							C5.5,25.2,25.8,5,50.8,5 M50.8,0.2c-27.6,0-50,22.4-50,50s22.4,50,50,50s50-22.4,50-50S78.4,0.2,50.8,0.2L50.8,0.2z"/>
					</g>
				</g>
			</g>
		</g>
	</g>
        <path class="st1" d="M32.2,34.1c-0.2,1.7,0.1,3.5-0.1,5.2c-0.1,1.7-0.3,3.4-0.7,5.2c-0.5,2.4-2,4.3-4.1,5.8
		c4.1,2.7,4.5,6.8,4.8,10.9c0.1,2.3,0.1,4.5,0.3,6.8c0.2,1.7,0.8,2.2,2.6,2.2c0.7,0,1.5,0,2.3,0v5.3c-5.3,0.9-9.7-0.6-10.7-5.1
		c-0.3-1.6-0.6-3.3-0.7-5c-0.1-1.8,0.1-3.6-0.1-5.4c-0.4-4.9-1-6.6-5.7-6.8v-6.1c0.3-0.1,0.7-0.1,1-0.2c2.6-0.1,3.7-0.9,4.2-3.5
		c0.3-1.4,0.4-2.9,0.5-4.3c0.2-2.8,0.1-5.6,0.6-8.4c0.7-4,3.1-5.9,7.2-6.1c1.2-0.1,2.3,0,3.7,0v5.5c-0.6,0-1,0.1-1.5,0.1
		C32.7,30.2,32.5,31.3,32.2,34.1z M38.7,46.7L38.7,46.7c-2-0.1-3.7,1.4-3.8,3.3c-0.1,1.9,1.4,3.6,3.3,3.7h0.2
		c1.9,0.1,3.5-1.3,3.7-3.3v-0.2C42.2,48.4,40.6,46.8,38.7,46.7z M50.7,46.7c-1.9-0.1-3.4,1.4-3.5,3.3c0,0.1,0,0.2,0,0.3
		c0,2.1,1.4,3.4,3.6,3.4c2.1,0,3.4-1.4,3.4-3.6C54.3,48.1,52.9,46.7,50.7,46.7z M63.1,46.7c-2,0-3.6,1.5-3.7,3.5
		c0,2,1.6,3.5,3.5,3.5h0c1.8,0.3,3.6-1.4,3.7-3.5C66.8,48.4,65,46.7,63.1,46.7z M80,47c-2.2-0.1-3.3-0.8-3.9-3
		c-0.3-1.3-0.6-2.8-0.6-4.1c-0.2-2.6-0.1-5.2-0.3-7.8c-0.4-6.1-4.8-8.3-11.3-7.2v5.3c1,0,1.8,0,2.6,0c1.4,0,2.4,0.5,2.5,2.1
		c0.1,1.4,0.1,2.8,0.3,4.2c0.3,2.8,0.4,5.6,0.9,8.4c0.4,2.3,2,4,3.9,5.3c-3.4,2.3-4.4,5.6-4.6,9.2c-0.1,2.5-0.2,5.1-0.3,7.6
		c-0.1,2.3-0.9,3.1-3.3,3.1c-0.7,0-1.3,0.1-2,0.1v5.4c1.4,0,2.6,0.1,3.9,0c3.9-0.2,6.2-2.1,7-5.9c0.3-2.1,0.5-4.2,0.6-6.3
		c0.1-1.9,0.1-3.9,0.3-5.8c0.3-3,1.7-4.2,4.6-4.4c0.3,0,0.6-0.1,0.8-0.2v-6.1C80.7,47.1,80.4,47,80,47z"/>
</g>
</svg>
